<svg width="1920" height="790" viewBox="0 0 1920 790" fill="none" xmlns="http://www.w3.org/2000/svg">
<path d="M1920 0C1866.69 0 1865.37 49.2677 1812.02 49.2677C1758.67 49.2677 1758.71 0.602469 1705.4 0.602469C1652.08 0.602469 1652.08 49.2677 1598.76 49.2677C1545.44 49.2677 1545.46 0.602469 1492.15 0.602469C1438.84 0.602469 1438.84 49.2677 1385.53 49.2677C1332.22 49.2677 1332.22 0.602469 1278.91 0.602469C1225.6 0.602469 1225.6 49.2677 1172.28 49.2677C1118.97 49.2677 1118.97 0.602469 1065.66 0.602469C1012.35 0.602469 1012.36 49.2677 959.05 49.2677C905.739 49.2677 905.739 0.602469 852.428 0.602469C799.117 0.602469 799.117 49.2677 745.806 49.2677C692.495 49.2677 692.534 0.602469 639.213 0.602469C585.892 0.602469 585.902 49.2677 532.591 49.2677C479.28 49.2677 479.29 0.602469 425.979 0.602469C372.668 0.602469 372.668 49.2677 319.357 49.2677C266.046 49.2677 266.046 0.602469 212.734 0.602469C159.423 0.602469 159.423 49.2677 106.122 49.2677C52.9812 49.2677 52.8012 0.918771 0 0.602469V790H897.85H1920" fill="#94B0DC"/>
</svg>
