<svg width="1920" height="445" viewBox="0 0 1920 445" fill="none" xmlns="http://www.w3.org/2000/svg">
<path d="M749.18 140.011C489.722 11.1707 142.286 -6.02083 0.999961 1.48849L1.00003 444.858C93.2368 444.858 1420.55 445.177 1921 444.858C1892.47 384.272 1656.62 334.615 1455.06 319.756C1320.96 314.963 992.048 272.303 749.18 140.011Z" fill="#030E20"/>
<path d="M1173.82 307.926C1433.28 250.02 1780.71 242.294 1922 245.669L1922 444.936C1829.76 444.936 502.446 445.08 2 444.937C30.5337 417.707 266.382 395.389 467.943 388.711C602.04 386.556 930.952 367.384 1173.82 307.926Z" fill="#94B0DC"/>
<path d="M502.377 212.66C327.466 114.51 93.2464 101.413 -1.99994 107.134L-1.99998 444.892C60.1804 444.892 1155.63 445.135 1493 444.892C1473.76 398.738 1114.12 360.909 978.235 349.589C887.835 345.938 666.103 313.44 502.377 212.66Z" fill="#2479E0"/>
</svg>
